# xmcd
#
# Track frame offsets: 
#        150
#        21357
#        39240
#        57760
#
# Disc length: 1015 seconds
#
# Revision: 4
# Processed by: cddbd v1.5.1PL0 Copyright (c) Steve Scherf et al.
# Submitted via: ExactAudioCopy v0.95a5
#
DISCID=2803f504
DTITLE=LL Cool J - Doin' it
DYEAR=1995
DGENRE=Hip-Hop
TTITLE0=Doin' it (LP Version)
TTITLE1=Doin' it (Main Remix)
TTITLE2=Doin' it (Unarmed Mix)
TTITLE3=Hey Lover (Street Version)
EXTD=ID3G: 0
EXTT0=
EXTT1=
EXTT2=
EXTT3=
PLAYORDER=
